<svg width="812" height="600" viewBox="0 0 812 600" fill="none" xmlns="http://www.w3.org/2000/svg">
<path fill-rule="evenodd" clip-rule="evenodd" d="M271.312 161.488C271.312 208.534 307.757 247.169 355.179 247.169C397.934 247.169 421.947 230.45 437.636 208.031C464.221 170.041 459.036 112.163 450.674 68.7559C445.998 42.8646 433.979 0 400.988 0C365.855 0 371.873 35.2827 375.996 59.4525C376.23 60.8296 376.459 62.1706 376.674 63.467C378.138 72.3118 381.96 89.9115 381.96 89.9115C371.623 84.27 359.877 81.4493 346.721 81.4493C301.257 81.4493 271.312 117.446 271.312 161.488ZM393.513 170.408C393.513 187.474 380.451 200.499 364.338 200.499C348.225 200.499 335.163 187.474 335.163 170.408C335.163 153.341 348.225 140.317 364.338 140.317C380.451 140.317 393.513 153.341 393.513 170.408Z" fill="white"/>
<path fill-rule="evenodd" clip-rule="evenodd" d="M811.99 173.763C812.743 222.723 770.258 256.687 723.542 257.328C674.968 258.003 636.903 222.559 635.447 173.763C634.715 124.658 676.435 90.9033 723.542 90.9033C770.946 90.9033 810.548 125.425 811.99 173.763ZM755.024 182.851C755.024 199.918 741.962 212.942 725.849 212.942C709.736 212.942 696.674 199.918 696.674 182.851C696.674 165.785 709.736 152.76 725.849 152.76C741.962 152.76 755.024 165.785 755.024 182.851Z" fill="white"/>
<path fill-rule="evenodd" clip-rule="evenodd" d="M579.919 260.246C598.916 254.091 611.865 247.177 618.765 239.505C625.594 231.61 627.886 224.196 625.642 217.264C622.706 208.191 612.273 204.497 604.764 208.833C599.491 211.879 587.483 218.139 578.025 221.204C567.147 224.728 550.63 226.725 542.831 219.704C541.078 218.126 542.517 215.588 544.872 215.467C552.533 215.076 561.052 213.361 570.429 210.322C600.872 200.458 630.163 176.298 618.827 141.271C606.477 103.108 562.091 91.8312 527.219 103.131C482.247 117.703 456.183 165.182 470.913 210.695C486.229 258.022 534.852 274.849 579.919 260.246ZM553.65 180.962C545.155 184.882 531.677 186.035 526.526 176.299C519.702 163.401 527.83 151.996 538.754 146.956C548.29 142.556 561.781 143.531 567.214 156.308C571.978 167.513 561.337 177.416 553.65 180.962Z" fill="white"/>
<path d="M256.593 164.315C253.818 180.953 244.954 193.169 227.032 193.169C207.264 193.169 199.505 179.153 196.775 161.259C195.384 150.397 194.688 135.008 194.688 115.093C194.688 98.3463 195.5 85.1074 197.123 75.3763C200.276 58.8343 209.075 46.5223 227.032 46.5223C246.482 46.5223 254.681 61.1192 256.941 78.7709C258.564 89.4072 259.376 104.683 259.376 124.598C259.376 141.344 258.448 154.583 256.593 164.315Z" fill="white"/>
<path d="M92.4757 251.607C73.5096 248.731 58.1285 232.174 46.1571 218.658C35.1043 205.983 25.1822 192.079 16.3906 176.947C7.56606 161.581 2.22891 147.382 0.379195 134.349C-1.92639 118.104 6.31567 98.9609 24.1815 96.4221C44.6417 93.5147 60.4051 111.841 69.9035 127.675C77.3411 139.345 83.5847 151.651 89.8282 163.957C92.6536 169.526 95.4789 175.095 98.4148 180.605L98.4161 180.598C102.105 161.508 105.802 142.375 110.97 123.62C117.06 100.831 141.119 70.2891 167.365 84.623C187.867 95.8202 180.431 133.06 175.881 152.146C172.013 168.366 166.901 183.337 160.544 197.061C152.487 214.074 143.244 232.793 127.316 243.807C116.956 250.76 104.8 253.31 92.4757 251.607Z" fill="white"/>
<path fill-rule="evenodd" clip-rule="evenodd" d="M551.299 349.267C552.755 398.062 590.82 433.507 639.395 432.831C686.111 432.191 728.595 398.226 727.842 349.267C726.4 300.929 686.798 266.407 639.395 266.407C592.287 266.407 550.567 300.162 551.299 349.267ZM622.112 364.087C640.254 364.087 654.961 349.423 654.961 330.207C654.961 310.991 640.254 296.327 622.112 296.327C603.97 296.327 589.263 310.991 589.263 330.207C589.263 349.423 603.97 364.087 622.112 364.087Z" fill="white"/>
<path fill-rule="evenodd" clip-rule="evenodd" d="M364.646 432.831C411.362 432.191 453.847 398.226 453.094 349.267C451.652 300.929 412.05 266.407 364.646 266.407C317.538 266.407 275.819 300.162 276.551 349.267C278.007 398.062 316.072 433.507 364.646 432.831ZM381.05 330.207C381.05 349.423 366.343 364.087 348.201 364.087C330.059 364.087 315.352 349.423 315.352 330.207C315.352 310.991 330.059 296.327 348.201 296.327C366.343 296.327 381.05 310.991 381.05 330.207Z" fill="white"/>
<path d="M463.822 493.478C450.902 493.478 440.683 491.01 433.165 486.073C425.883 481.372 422.241 474.438 422.241 465.27C422.241 454.392 428.332 444.417 438.098 439.531C441.207 438.148 444.851 437.734 448.493 437.32C453.818 436.714 459.137 436.109 462.765 432.479C469.609 425.06 469.344 411.687 469.138 401.253C469.085 398.615 469.037 396.165 469.108 394.046C469.069 389.418 469.003 384.787 468.937 380.153C468.625 358.428 468.313 336.665 470.87 315.065C473.148 295.821 482.854 286.858 500.47 286.858C523.598 286.858 531.321 303.406 533.594 327.053C536.819 360.614 537.516 396.506 533.241 430.011C528.597 466.41 501.257 493.478 463.822 493.478Z" fill="white"/>
<path fill-rule="evenodd" clip-rule="evenodd" d="M162.744 432.481C117.282 432.481 78.8771 393.847 78.8771 346.801C78.8771 302.759 108.822 266.762 154.287 266.762C167.442 266.762 179.188 269.583 189.525 275.224C189.525 275.224 189.134 269.826 189.525 253.893C190.086 231.003 194.988 207.833 222.989 207.833C242.267 207.833 253.037 229.809 258.325 253.893C268.054 298.201 271.817 354.174 245.201 393.343C226.752 420.493 197.709 432.481 162.744 432.481ZM171.97 385.098C188.083 385.098 201.145 372.073 201.145 355.007C201.145 337.94 188.083 324.916 171.97 324.916C155.857 324.916 142.795 337.94 142.795 355.007C142.795 372.073 155.857 385.098 171.97 385.098Z" fill="white"/>
<path d="M501.323 556.044C501.768 558.496 504.981 559.103 507.15 558.852C509.112 558.625 512.187 557.238 511.934 554.497C511.645 551.373 508.719 550.224 506.285 550.505C503.497 550.828 500.735 552.797 501.323 556.044Z" fill="white"/>
<path d="M399.469 542.345C397.664 545.578 393.212 546.832 389.989 545.031C386.776 543.235 385.51 538.762 387.305 535.546C389.105 532.322 393.553 531.054 396.784 532.86C400.023 534.671 401.278 539.103 399.469 542.345Z" fill="white"/>
<path fill-rule="evenodd" clip-rule="evenodd" d="M378.07 479.693C367.714 470.51 359.131 462.9 347.837 461.025C330.036 458.07 317.821 474.167 314.22 485.521C296.51 541.366 384.805 587.9 440.988 597.226C493.165 605.887 591.683 596.799 602.206 533.326C605.311 514.6 594.737 501.294 574.955 498.011C565.807 496.492 555.939 500.488 543.607 505.482C523.067 513.799 495.693 524.884 453.43 517.868C413.681 511.27 393.823 493.662 378.07 479.693ZM334.527 495.006C325.01 506.313 329.388 517.867 339.189 526.125C344.988 531.012 355.183 533.219 360.696 526.669C365.463 521.005 363.259 515.768 357.877 511.232C355.577 509.294 353.62 508.302 352.006 508.256C350.419 508.179 349.059 508.813 347.927 510.158C346.794 511.504 346.632 512.983 347.44 514.595C348.248 516.207 349.869 518.039 352.303 520.089C349.332 520.341 346.674 518.796 345.553 517.852C341.937 514.804 341.115 510.026 344.24 506.313C347.831 502.046 353.132 501.401 357.449 505.039C358.778 506.159 359.668 507.531 360.574 508.926C360.979 509.55 361.386 510.178 361.838 510.791C365.008 514.976 370.558 515.663 373.828 511.776C379.068 505.551 371.984 496.339 367.264 492.362C357.046 483.752 343.147 484.764 334.527 495.006ZM452.047 572.096C451.222 575.69 449.238 579.163 445.074 578.472C440.81 577.764 440.227 573.722 440.61 570.076C440.761 568.964 440.957 567.846 441.154 566.723C441.569 564.361 441.987 561.98 441.987 559.611C441.987 558.897 441.987 558.102 441.03 557.812C440.278 557.584 439.653 557.948 439.225 558.606C437.752 560.872 437.737 563.977 437.723 567.009C437.715 568.657 437.708 570.283 437.466 571.741C436.939 574.916 434.985 576.675 431.718 576.133C429.818 575.818 428.344 574.5 427.294 572.179C424.85 566.773 424.989 560.136 425.94 554.396C426.971 548.176 429.534 541.396 435.026 537.799C439.076 535.201 445.7 535.212 448.597 539.566C449.815 541.348 450.493 543.385 450.631 545.676C451.417 543.578 452.677 541.864 454.412 540.531C458.556 537.434 464.715 539.394 467.719 543.166C472.197 548.562 472.111 556.682 471.028 563.217C470.123 568.672 467.892 574.578 463.942 578.566C462.219 580.305 460.466 581.027 458.683 580.731C455.347 580.177 454.027 577.817 454.564 574.579C454.83 572.969 455.345 571.385 455.859 569.797C456.604 567.503 457.35 565.203 457.352 562.818C457.353 561.287 456.836 560.436 455.802 560.264C455.104 560.148 454.563 560.646 454.18 561.757C453.549 563.803 453.185 565.917 452.821 568.03C452.587 569.392 452.353 570.753 452.047 572.096ZM485.237 562.324C486.541 574.952 497.975 582.081 510.232 580.814C515.389 580.281 519.051 579.227 521.218 577.653C523.38 576.019 524.363 574.261 524.169 572.379C523.914 569.916 521.563 568.875 519.324 569.106C518.187 569.224 517.336 569.498 516.399 569.799C515.249 570.169 513.968 570.581 511.865 570.798C508.871 571.108 506.404 570.594 504.463 569.257C503.676 568.715 504.284 567.643 505.236 567.723C506.833 567.856 508.596 567.823 510.525 567.624C518.789 566.769 527.535 562.222 526.553 552.714C525.483 542.355 514.823 537.085 505.357 538.064C493.149 539.326 483.961 549.969 485.237 562.324ZM565.804 562.942C561.194 565.245 557.148 566.317 553.665 566.158C549.683 565.976 545.296 562.313 546.403 557.901C546.979 555.607 549.954 553.516 552.376 553.738C553.262 553.82 553.857 553.956 554.367 554.073C555.104 554.242 555.662 554.37 556.662 554.231C558.079 554.033 558.469 553.316 558.469 552.539C558.469 551.29 557.421 550.557 556.662 550.478C554.75 550.158 552.694 550.247 550.646 550.336C545.737 550.549 540.876 550.76 538.161 545.32C533.963 536.908 542.891 528.223 549.72 524.811C554.537 522.404 560.697 520.706 565.982 522.579C568.103 523.288 569.595 524.507 570.458 526.237C572.092 529.51 570.327 532.49 567.272 534.017C566.076 534.614 564.969 534.644 563.784 534.677C563.289 534.691 562.779 534.705 562.244 534.761C561.322 534.815 560.316 535.243 560.005 536.174C559.268 537.856 561.36 538.498 562.635 538.298C568.236 537.471 574.923 537.545 577.794 543.297C582.157 552.04 572.658 559.517 565.804 562.942ZM395.434 557.255C394.741 560.2 397.029 562.846 399.424 564.184C402.896 566.124 406.718 564.166 408.526 560.928C410.648 557.127 412.33 553.656 413.572 550.515C417.854 539.691 414.832 528.096 404.44 521.724C394.047 515.352 382.181 517.307 375.15 529.039C370.112 537.446 373.213 549.342 381.756 554.117C386.079 556.533 390.473 557.706 395.434 557.255Z" fill="white"/>
<path d="M793.145 302.285C793.313 301.317 793.694 300.835 794.285 300.837C795.162 300.841 795.702 301.475 795.904 302.739C796.219 304.708 795.909 306.705 795.6 308.698L795.6 308.699C795.386 310.078 795.172 311.454 795.166 312.818C795.153 315.561 796.557 317.334 799.384 317.347C800.895 317.354 802.246 316.525 803.437 314.86C806.167 311.043 807.224 305.871 807.245 301.248C807.271 295.71 806.262 288.996 801.849 285.138C798.867 282.425 793.523 281.627 790.515 284.735C789.26 286.066 788.448 287.649 788.078 289.484C787.66 287.612 786.829 286.021 785.587 284.712C782.617 281.504 777.148 282.377 774.151 285.06C770.096 288.76 768.882 294.697 768.858 299.968C768.835 304.832 769.603 310.329 772.339 314.466C773.514 316.242 774.906 317.133 776.516 317.141C779.285 317.154 780.664 315.442 780.676 312.751C780.682 311.516 780.473 310.173 780.26 308.813L780.26 308.811C779.869 306.306 779.468 303.742 780.383 301.675C780.648 301.075 781.116 300.692 781.767 300.78C782.595 300.892 782.7 301.547 782.795 302.137C783.11 304.092 783.082 306.113 783.054 308.118V308.121C783.04 309.073 783.027 310.022 783.05 310.958C783.219 314.018 784.237 317.277 787.851 317.293C791.38 317.31 792.556 314.18 792.759 311.103C792.833 309.955 792.845 308.801 792.858 307.647V307.644C792.877 305.852 792.896 304.058 793.145 302.285Z" fill="white"/>
<path d="M750.713 282.795C756.823 282.795 761.261 283.31 764.026 284.339C766.856 285.369 768.271 287.235 768.271 289.938C768.271 292.126 767.371 293.703 765.57 294.668C763.833 295.634 760.907 296.245 756.791 296.502C757.112 302.27 757.829 308.384 755.633 313.878C754.733 316.066 753.061 317.16 750.617 317.16C748.301 317.16 746.726 316.034 745.889 313.781C743.897 308.259 744.511 302.25 744.828 296.502C740.712 296.309 737.754 295.73 735.953 294.765C734.216 293.799 733.348 292.191 733.348 289.938C733.348 287.235 734.699 285.369 737.4 284.339C740.165 283.31 744.603 282.795 750.713 282.795Z" fill="white"/>
</svg>
