<svg width="320" height="238" viewBox="0 0 320 238" fill="none" xmlns="http://www.w3.org/2000/svg">
<path fill-rule="evenodd" clip-rule="evenodd" d="M106.921 64.4141C106.921 82.9542 121.283 98.1798 139.972 98.1798C156.821 98.1798 166.284 91.5912 172.467 82.7559C182.944 67.7848 180.901 44.9756 177.605 27.8693C175.763 17.6659 171.026 0.773438 158.025 0.773438C144.179 0.773438 146.551 14.678 148.176 24.203C148.268 24.7457 148.358 25.2742 148.443 25.785C149.02 29.2707 150.526 36.2066 150.526 36.2066C146.452 33.9833 141.823 32.8717 136.639 32.8717C118.722 32.8717 106.921 47.0575 106.921 64.4141ZM155.079 67.9292C155.079 74.655 149.931 79.7877 143.581 79.7877C137.232 79.7877 132.084 74.655 132.084 67.9292C132.084 61.2035 137.232 56.0707 143.581 56.0707C149.931 56.0707 155.079 61.2035 155.079 67.9292Z" fill="white"/>
<path fill-rule="evenodd" clip-rule="evenodd" d="M319.996 69.2514C320.293 88.5459 303.55 101.931 285.14 102.183C265.997 102.449 250.996 88.4813 250.423 69.2514C250.134 49.8998 266.575 36.5974 285.14 36.5974C303.821 36.5974 319.428 50.202 319.996 69.2514ZM297.546 72.833C297.546 79.5588 292.399 84.6916 286.049 84.6916C279.699 84.6916 274.551 79.5588 274.551 72.833C274.551 66.1073 279.699 60.9745 286.049 60.9745C292.399 60.9745 297.546 66.1073 297.546 72.833Z" fill="white"/>
<path fill-rule="evenodd" clip-rule="evenodd" d="M228.539 103.334C236.026 100.908 241.129 98.1831 243.848 95.1598C246.539 92.0483 247.443 89.1266 246.558 86.3945C245.401 82.819 241.29 81.3632 238.331 83.0722C236.252 84.2724 231.52 86.7395 227.793 87.9472C223.506 89.3363 216.997 90.123 213.923 87.3563C213.233 86.7346 213.8 85.734 214.728 85.6866C217.747 85.5323 221.104 84.8565 224.8 83.6591C236.797 79.7717 248.34 70.2504 243.873 56.4466C239.006 41.4071 221.514 36.9631 207.771 41.416C190.048 47.1587 179.777 65.8698 185.581 83.8059C191.617 102.457 210.779 109.088 228.539 103.334ZM218.187 72.0887C214.84 73.6332 209.528 74.0876 207.498 70.2507C204.809 65.1681 208.012 60.6731 212.317 58.687C216.075 56.9531 221.392 57.3372 223.533 62.3728C225.41 66.7883 221.217 70.6911 218.187 72.0887Z" fill="white"/>
<path d="M101.121 65.5279C100.027 72.0851 96.5336 76.899 89.4707 76.899C81.6803 76.899 78.6227 71.3755 77.5467 64.3239C76.9985 60.0431 76.7244 53.9785 76.7244 46.1303C76.7244 39.5306 77.0442 34.3133 77.6838 30.4784C78.9263 23.9594 82.3939 19.1073 89.4707 19.1073C97.1357 19.1073 100.367 24.8598 101.258 31.8161C101.897 36.0078 102.217 42.0278 102.217 49.876C102.217 56.4757 101.851 61.693 101.121 65.5279Z" fill="white"/>
<path d="M36.4436 99.9288C28.9693 98.7955 22.9078 92.2707 18.19 86.944C13.8342 81.9491 9.92401 76.4698 6.45936 70.5061C2.9817 64.4507 0.878387 58.855 0.149436 53.7189C-0.759169 47.3171 2.48893 39.7728 9.52964 38.7723C17.5928 37.6265 23.8049 44.8486 27.5482 51.0887C30.4793 55.6877 32.9398 60.5375 35.4003 65.3872C36.5137 67.5818 37.6271 69.7764 38.7841 71.9477L38.7847 71.9449C40.2384 64.4218 41.6953 56.8817 43.7321 49.4907C46.1318 40.5098 55.6134 28.4736 65.9566 34.1224C74.0364 38.5351 71.106 53.211 69.3126 60.7326C67.7886 67.1245 65.7739 73.0246 63.2688 78.4331C60.0933 85.1376 56.4508 92.5145 50.1739 96.8549C46.091 99.5953 41.3003 100.6 36.4436 99.9288Z" fill="white"/>
<path fill-rule="evenodd" clip-rule="evenodd" d="M217.261 138.415C217.835 157.645 232.836 171.613 251.978 171.347C270.388 171.095 287.131 157.71 286.834 138.415C286.266 119.366 270.659 105.761 251.978 105.761C233.413 105.761 216.972 119.064 217.261 138.415Z" fill="white"/>
<path fill-rule="evenodd" clip-rule="evenodd" d="M143.703 171.347C162.113 171.095 178.856 157.71 178.559 138.415C177.991 119.366 162.384 105.761 143.703 105.761C125.138 105.761 108.697 119.064 108.986 138.415C109.559 157.645 124.56 171.613 143.703 171.347Z" fill="white"/>
<path d="M182.787 195.247C177.695 195.247 173.668 194.275 170.705 192.329C167.836 190.477 166.401 187.744 166.401 184.131C166.401 179.844 168.801 175.913 172.65 173.988C173.875 173.443 175.311 173.279 176.746 173.116C178.844 172.878 180.941 172.639 182.37 171.208C185.068 168.285 184.963 163.014 184.882 158.903C184.861 157.863 184.842 156.897 184.87 156.063C184.855 154.239 184.829 152.414 184.803 150.588C184.68 142.026 184.557 133.449 185.564 124.937C186.462 117.353 190.287 113.821 197.23 113.821C206.344 113.821 209.388 120.342 210.283 129.661C211.554 142.888 211.829 157.032 210.144 170.236C208.314 184.58 197.54 195.247 182.787 195.247Z" fill="white"/>
<path fill-rule="evenodd" clip-rule="evenodd" d="M64.1355 171.209C46.2195 171.209 31.0846 155.984 31.0846 137.444C31.0846 120.087 42.8855 105.901 60.8026 105.901C65.9871 105.901 70.6161 107.013 74.6896 109.236C74.6896 109.236 74.5356 107.109 74.6896 100.83C74.9108 91.8091 76.8425 82.6781 87.8774 82.6781C95.4745 82.6781 99.7189 91.3386 101.803 100.83C105.637 118.291 107.12 140.349 96.6309 155.786C89.3606 166.485 77.9149 171.209 64.1355 171.209ZM67.7715 152.536C74.1214 152.536 79.269 147.403 79.269 140.677C79.269 133.952 74.1214 128.819 67.7715 128.819C61.4215 128.819 56.2739 133.952 56.2739 140.677C56.2739 147.403 61.4215 152.536 67.7715 152.536Z" fill="white"/>
<path d="M197.566 219.904C197.741 220.87 199.007 221.11 199.862 221.011C200.635 220.921 201.847 220.374 201.747 219.295C201.634 218.063 200.48 217.61 199.521 217.721C198.422 217.849 197.334 218.624 197.566 219.904Z" fill="white"/>
<path d="M157.426 214.505C156.715 215.78 154.96 216.274 153.69 215.564C152.424 214.856 151.925 213.093 152.632 211.826C153.342 210.555 155.095 210.056 156.368 210.767C157.645 211.481 158.139 213.228 157.426 214.505Z" fill="white"/>
<path fill-rule="evenodd" clip-rule="evenodd" d="M148.993 189.815C144.912 186.196 141.53 183.197 137.079 182.458C130.064 181.294 125.249 187.637 123.83 192.112C116.851 214.12 151.647 232.458 173.788 236.133C194.351 239.547 233.175 235.965 237.323 210.951C238.546 203.571 234.379 198.328 226.583 197.034C222.978 196.435 219.089 198.01 214.229 199.978C206.135 203.256 195.347 207.624 178.692 204.859C163.027 202.259 155.201 195.32 148.993 189.815ZM131.833 195.85C128.083 200.306 129.808 204.859 133.67 208.113C135.956 210.039 139.974 210.909 142.146 208.328C144.025 206.095 143.156 204.032 141.035 202.244C140.129 201.48 139.358 201.089 138.721 201.071C138.096 201.041 137.56 201.291 137.114 201.821C136.668 202.351 136.604 202.934 136.922 203.57C137.241 204.205 137.88 204.927 138.839 205.735C137.668 205.834 136.62 205.225 136.179 204.853C134.753 203.652 134.43 201.769 135.661 200.306C137.076 198.624 139.165 198.37 140.866 199.803C141.39 200.245 141.741 200.786 142.098 201.336C142.258 201.581 142.418 201.829 142.596 202.07C143.846 203.72 146.033 203.99 147.321 202.459C149.386 200.005 146.595 196.375 144.734 194.808C140.708 191.415 135.23 191.813 131.833 195.85ZM178.147 226.23C177.821 227.647 177.04 229.015 175.399 228.743C173.718 228.464 173.488 226.871 173.64 225.434C173.699 224.996 173.776 224.555 173.854 224.112C174.017 223.182 174.182 222.243 174.182 221.31C174.182 221.028 174.182 220.715 173.805 220.601C173.508 220.511 173.262 220.654 173.094 220.914C172.513 221.807 172.507 223.031 172.502 224.225C172.499 224.875 172.496 225.515 172.4 226.09C172.193 227.341 171.423 228.035 170.135 227.821C169.387 227.697 168.805 227.177 168.392 226.263C167.429 224.132 167.483 221.516 167.858 219.255C168.265 216.804 169.274 214.131 171.439 212.714C173.035 211.69 175.645 211.695 176.787 213.41C177.267 214.113 177.534 214.915 177.589 215.818C177.898 214.991 178.395 214.316 179.079 213.791C180.712 212.57 183.139 213.342 184.323 214.829C186.087 216.955 186.054 220.156 185.627 222.731C185.27 224.881 184.391 227.208 182.834 228.78C182.155 229.465 181.465 229.749 180.762 229.633C179.447 229.415 178.927 228.484 179.138 227.208C179.244 226.574 179.446 225.95 179.649 225.324C179.942 224.42 180.236 223.514 180.237 222.574C180.238 221.97 180.034 221.635 179.626 221.567C179.351 221.522 179.138 221.718 178.987 222.155C178.738 222.962 178.595 223.795 178.452 224.628C178.359 225.164 178.267 225.701 178.147 226.23ZM191.226 222.379C191.74 227.356 196.246 230.165 201.077 229.666C203.109 229.456 204.552 229.04 205.406 228.42C206.258 227.776 206.646 227.083 206.569 226.341C206.469 225.371 205.542 224.961 204.66 225.052C204.211 225.098 203.876 225.206 203.507 225.325C203.054 225.47 202.549 225.633 201.72 225.718C200.54 225.84 199.568 225.638 198.803 225.111C198.493 224.898 198.733 224.475 199.108 224.507C199.737 224.559 200.432 224.546 201.192 224.467C204.449 224.131 207.895 222.339 207.508 218.592C207.087 214.509 202.886 212.433 199.156 212.818C194.345 213.316 190.724 217.51 191.226 222.379ZM222.977 222.622C221.16 223.53 219.566 223.953 218.193 223.89C216.624 223.818 214.895 222.374 215.331 220.636C215.558 219.732 216.731 218.908 217.685 218.995C218.034 219.027 218.269 219.081 218.47 219.127C218.76 219.194 218.98 219.244 219.374 219.189C219.933 219.112 220.086 218.829 220.086 218.523C220.086 218.031 219.673 217.742 219.374 217.711C218.62 217.585 217.81 217.62 217.003 217.655C215.069 217.739 213.153 217.822 212.083 215.678C210.429 212.363 213.947 208.94 216.638 207.595C218.537 206.647 220.964 205.978 223.047 206.716C223.883 206.995 224.471 207.476 224.811 208.157C225.455 209.447 224.76 210.622 223.556 211.223C223.084 211.459 222.648 211.471 222.181 211.484C221.986 211.489 221.785 211.494 221.574 211.517C221.211 211.538 220.814 211.706 220.691 212.074C220.401 212.736 221.225 212.989 221.728 212.911C223.935 212.585 226.571 212.614 227.702 214.881C229.421 218.326 225.678 221.273 222.977 222.622ZM155.836 220.381C155.563 221.542 156.465 222.584 157.409 223.112C158.777 223.877 160.283 223.105 160.995 221.829C161.832 220.331 162.495 218.963 162.984 217.725C164.671 213.46 163.481 208.89 159.385 206.379C155.289 203.868 150.613 204.638 147.842 209.262C145.857 212.575 147.079 217.263 150.446 219.145C152.149 220.097 153.881 220.559 155.836 220.381Z" fill="white"/>
<path d="M312.569 119.901C312.636 119.519 312.786 119.329 313.019 119.33C313.364 119.332 313.577 119.581 313.657 120.08C313.781 120.855 313.659 121.643 313.537 122.428L313.537 122.428C313.453 122.972 313.368 123.514 313.366 124.051C313.361 125.133 313.914 125.831 315.028 125.836C315.624 125.839 316.156 125.512 316.625 124.856C317.701 123.352 318.118 121.314 318.126 119.492C318.136 117.309 317.739 114.664 316 113.143C314.825 112.074 312.719 111.759 311.533 112.984C311.039 113.509 310.718 114.132 310.573 114.856C310.408 114.118 310.08 113.491 309.591 112.975C308.42 111.711 306.265 112.055 305.084 113.112C303.486 114.57 303.008 116.91 302.998 118.988C302.989 120.904 303.292 123.071 304.37 124.701C304.833 125.401 305.382 125.752 306.016 125.755C307.107 125.76 307.651 125.085 307.656 124.025C307.658 123.538 307.575 123.009 307.492 122.473L307.492 122.472C307.337 121.485 307.18 120.475 307.54 119.66C307.645 119.424 307.829 119.273 308.085 119.307C308.412 119.351 308.453 119.61 308.491 119.842C308.615 120.613 308.604 121.409 308.593 122.199V122.201C308.587 122.576 308.582 122.949 308.591 123.318C308.658 124.524 309.059 125.809 310.483 125.815C311.874 125.822 312.337 124.588 312.417 123.375C312.446 122.923 312.451 122.469 312.456 122.014V122.013C312.464 121.306 312.471 120.599 312.569 119.901Z" fill="white"/>
<path d="M295.847 112.22C298.255 112.22 300.004 112.423 301.094 112.828C302.209 113.234 302.767 113.97 302.767 115.035C302.767 115.897 302.412 116.518 301.702 116.899C301.018 117.279 299.865 117.52 298.243 117.622C298.369 119.895 298.652 122.304 297.786 124.469C297.432 125.331 296.773 125.763 295.809 125.763C294.897 125.763 294.276 125.319 293.947 124.431C293.161 122.255 293.403 119.887 293.528 117.622C291.906 117.546 290.74 117.317 290.031 116.937C289.346 116.556 289.004 115.922 289.004 115.035C289.004 113.97 289.536 113.234 290.601 112.828C291.691 112.423 293.44 112.22 295.847 112.22Z" fill="white"/>
</svg>
