<svg width="572" height="119" viewBox="0 0 572 119" fill="none" xmlns="http://www.w3.org/2000/svg">
<path d="M25.8359 97.6403L22.1048 91.5432C21.8427 91.1286 22.1035 90.5906 22.8874 89.9291C23.6525 89.238 24.3164 88.7146 24.879 88.3588L26.6956 87.3967C27.9332 86.8628 28.6924 86.8179 28.9733 87.2621L37.5871 101.277C37.257 102.066 36.3199 103.239 34.7757 104.796C33.2424 106.305 31.3209 107.789 29.0111 109.25C24.7174 111.965 20.3727 112.764 15.977 111.647C11.5814 110.53 7.67954 107.277 4.27155 101.887C1.36914 97.2975 0.297893 92.7518 1.05781 88.2503C1.81772 83.7489 4.47781 80.0563 9.03809 77.1726C11.1109 75.8618 13.1076 74.8894 15.028 74.2554C16.9593 73.573 18.4513 73.3757 19.5038 73.6636C19.6832 73.8818 19.9789 74.3166 20.3909 74.968C20.8028 75.6195 21.1706 76.6927 21.4941 78.1877C21.7989 79.6531 21.8573 80.8598 21.6692 81.8078C21.481 82.7558 21.2537 83.3141 20.9872 83.4826C20.7503 83.6324 20.4183 83.6973 19.9911 83.6773C19.5748 83.6089 18.8771 83.7184 17.8982 84.0058C16.9005 84.2636 16.0167 84.636 15.2468 85.1228C13.4109 86.2838 12.2899 87.8216 11.8841 89.7364C11.5078 91.6325 12.1062 93.8242 13.6791 96.3116C15.252 98.799 17.0278 100.329 19.0066 100.902C20.9963 101.426 22.7462 101.211 24.2565 100.256C25.7963 99.282 26.3228 98.4102 25.8359 97.6403Z" fill="#252732"/>
<path d="M53.1909 94.4181C53.31 94.6325 51.9761 95.5139 49.1891 97.0625C46.3682 98.5498 44.9066 99.2015 44.8045 99.0178L36.33 83.7662L35.0897 84.4554C34.5997 84.7277 34.0399 84.6579 33.4103 84.2462C32.7943 83.7869 32.2396 83.1131 31.7461 82.225C29.9082 78.9174 29.9693 76.7191 31.9294 75.63C33.3076 74.8642 34.6943 74.6548 36.0895 75.0018C37.4677 75.3182 38.4546 76.0123 39.0502 77.0842C38.9957 75.4712 39.3002 73.9994 39.9636 72.6688C40.6407 71.2905 41.5459 70.2866 42.679 69.657C44.4553 68.67 45.7825 68.5338 46.6605 69.2483C46.8885 69.4423 47.1386 69.7843 47.4109 70.2743C47.6662 70.7337 47.981 71.661 48.3554 73.0562C48.7605 74.4343 48.963 75.4841 48.9631 76.2056C48.9631 76.927 48.9325 77.3047 48.8713 77.3388C48.81 77.3728 48.4595 77.4273 47.8198 77.5022C47.1936 77.5295 46.6815 77.6537 46.2834 77.8749C45.1196 78.5216 45.0482 79.7637 46.0692 81.6012L53.1909 94.4181Z" fill="#252732"/>
<path d="M78.9136 79.7617C77.5067 81.9002 75.2476 83.7361 72.1363 85.2693C69.025 86.8025 65.882 87.0428 62.7074 85.9903C59.5172 84.9063 57.0007 82.4944 55.1577 78.7546C53.2993 74.9833 52.8262 71.4473 53.7384 68.1464C54.6821 64.8301 56.7253 62.3976 59.868 60.8489C63.0107 59.3002 65.8256 58.9091 68.3125 59.6756C70.8308 60.4267 72.6552 61.9493 73.7858 64.2434C76.2946 69.3347 74.6263 73.3205 68.7809 76.2011L65.5281 77.804C65.9927 78.7468 66.5694 79.2829 67.2581 79.4122C67.9627 79.4946 68.8178 79.2881 69.8235 78.7925C72.0234 77.7084 73.8655 76.1757 75.3499 74.1944C75.3658 74.1474 75.6156 74.2977 76.0993 74.6453C77.5195 75.6249 78.4619 76.5862 78.9265 77.529C79.3757 78.4404 79.3713 79.1846 78.9136 79.7617ZM66.3075 69.0418C65.657 67.7219 64.6875 67.3794 63.399 68.0143C62.8019 68.3086 62.3763 68.7527 62.1221 69.3466C61.8839 69.8936 61.9352 70.5129 62.2759 71.2043L62.996 72.6656L65.5416 71.4112C66.5787 70.9001 66.834 70.1103 66.3075 69.0418Z" fill="#252732"/>
<path d="M102.807 69.3531C101.285 71.4118 98.9295 73.1218 95.7393 74.4832C92.5491 75.8447 89.3977 75.9134 86.2851 74.6895C83.1587 73.4334 80.7773 70.888 79.1408 67.0533C77.4906 63.1864 77.2108 59.6299 78.3015 56.3836C79.4244 53.1236 81.5971 50.806 84.8195 49.4308C88.0419 48.0557 90.8739 47.8185 93.3153 48.7193C95.789 49.6064 97.5278 51.2261 98.5317 53.5785C100.759 58.7988 98.8765 62.6879 92.8828 65.2458L89.5476 66.6691C89.9602 67.6358 90.5067 68.2025 91.1873 68.3692C91.8864 68.4898 92.7516 68.3302 93.7827 67.8901C96.0384 66.9275 97.9613 65.4974 99.5514 63.5998C99.5698 63.5539 99.8111 63.7175 100.275 64.0909C101.64 65.1465 102.529 66.1577 102.941 67.1244C103.34 68.0589 103.295 68.8018 102.807 69.3531ZM90.8031 57.9624C90.2255 56.6089 89.2761 56.2141 87.9549 56.778C87.3427 57.0393 86.8935 57.4595 86.6074 58.0387C86.3397 58.572 86.3572 59.1931 86.6597 59.902L87.2992 61.4004L89.9093 60.2865C90.9727 59.8327 91.2707 59.058 90.8031 57.9624Z" fill="#252732"/>
<path d="M120.193 63.9748C120.339 64.3689 119.033 65.0782 116.274 66.1024C112.941 67.1905 111.219 67.5867 111.109 67.291L104.634 49.8501L102.122 50.7829C101.465 51.0268 100.716 50.0156 99.8744 47.7493C99.6549 47.158 99.4359 46.4171 99.2174 45.5266C99.0317 44.6238 99.1196 44.1054 99.4809 43.9713L102.092 43.0018L100.482 38.6662C100.239 38.0093 101.496 37.1687 104.255 36.1444C107.047 35.108 108.541 34.8525 108.736 35.378L109.906 38.5312L110.468 39.8924L114.655 38.3377C115.214 38.1304 115.92 39.1763 116.773 41.4755C117.627 43.7747 117.775 45.0279 117.216 45.2352L113.718 46.5339L120.193 63.9748Z" fill="#252732"/>
<path d="M136.484 58.4425C136.572 58.7086 135.086 59.3477 132.025 60.3598C128.998 61.3608 127.446 61.7449 127.369 61.5121L119.267 37.0131C119.19 36.7802 120.665 36.1633 123.692 35.1622C126.753 34.1502 128.316 33.7439 128.382 33.9435L136.484 58.4425ZM127.408 30.9996C127.485 31.2325 125.993 31.8549 122.933 32.867C119.906 33.8681 118.36 34.2688 118.294 34.0692L115.918 26.8842C115.807 26.5515 117.266 25.8847 120.293 24.8836C123.353 23.8716 124.916 23.4653 124.982 23.6649L127.408 30.9996Z" fill="#252732"/>
<path d="M151.873 53.8336C151.939 54.0698 150.757 54.5281 148.328 55.2085C144.926 56.0524 143.187 56.3394 143.112 56.0695L138.519 39.6732L137.203 40.0418C136.326 40.2875 135.544 39.7059 134.859 38.2971C134.668 37.8774 134.512 37.4483 134.389 37.0097C134.096 35.9639 134.005 34.8613 134.117 33.702C134.309 32.0475 135.045 31.0407 136.327 30.6815C137.609 30.3224 138.841 30.3047 140.024 30.6285C141.206 30.9522 142.051 31.3705 142.558 31.8832C144.173 29.466 146.448 27.8463 149.384 27.0241C152.319 26.2019 154.666 26.3993 156.426 27.6164C158.186 28.8335 159.572 31.2469 160.583 34.8568L164.836 50.0385C164.949 50.4434 163.555 51.0522 160.654 51.865C157.786 52.6683 156.296 52.8675 156.182 52.4627L152.085 37.8376C151.613 36.1507 150.786 35.4727 149.605 35.8035C149.268 35.898 148.838 36.1821 148.316 36.6558C147.784 37.0958 147.453 37.407 147.322 37.5892L151.873 53.8336Z" fill="#252732"/>
<path d="M179.221 47.2918C175.899 48.0109 173.101 47.5055 170.827 45.7753C168.545 44.011 166.951 41.04 166.047 36.8624C165.135 32.6506 165.605 29.1076 167.456 26.2333C169.334 23.3173 172.242 21.4331 176.18 20.5805C180.152 19.7205 183.611 19.8857 186.557 21.076L192.095 46.6552C192.644 49.1891 192.036 51.3462 190.27 53.1265C188.512 54.941 186.024 56.1967 182.805 56.8936C179.586 57.5905 176.621 57.8024 173.909 57.5292C173.389 56.7815 173.058 56.0823 172.917 55.4317C172.443 53.2402 172.454 51.553 172.951 50.37C175.46 50.8663 178.016 50.8327 180.618 50.2693C182.501 49.8615 183.298 48.9899 183.009 47.6545L182.676 46.1136C181.263 46.7063 180.111 47.099 179.221 47.2918ZM177.736 29.0084C175.441 29.5051 174.669 31.4827 175.417 34.9412C175.884 37.0985 176.634 38.4061 177.665 38.8639C178.343 39.183 178.974 39.2796 179.556 39.1535C180.138 39.0275 180.64 38.8649 181.063 38.6658L178.95 28.9067C178.517 28.8929 178.112 28.9268 177.736 29.0084Z" fill="#252732"/>
<path d="M196.369 34.1679C199.443 35.4136 201.793 35.9061 203.419 35.6453C204.457 35.4789 204.917 35.0324 204.801 34.3059C204.717 33.787 203.71 33.2567 201.778 32.715C197.171 31.6442 194.545 29.1024 193.902 25.0895C193.491 22.5296 194.112 20.4252 195.763 18.7765C197.415 17.1277 199.538 16.0952 202.133 15.6791C204.762 15.2575 207.02 15.1791 208.908 15.4441C210.83 15.7035 211.863 16.283 212.007 17.1824C212.13 17.9435 211.91 19.0077 211.349 20.3752C210.822 21.7371 210.428 22.4921 210.168 22.6403C208.548 22.0486 206.872 21.8915 205.143 22.1689C204.209 22.3187 203.794 22.7222 203.9 23.3795C203.966 23.7946 204.198 24.1301 204.594 24.386C205.018 24.6017 205.751 24.8567 206.792 25.1511C207.827 25.4109 208.684 25.6638 209.362 25.9099C210.075 26.1504 210.879 26.5182 211.775 27.0133C213.646 28.0615 214.751 29.6407 215.089 31.751C215.533 34.5185 214.977 36.9141 213.421 38.9378C211.859 40.927 209.228 42.2184 205.526 42.8121C203.07 43.206 200.772 43.1488 198.633 42.6403C196.493 42.1319 195.307 41.1512 195.074 39.6982C194.918 38.7296 194.979 37.673 195.257 36.5285C195.57 35.3784 195.94 34.5916 196.369 34.1679Z" fill="#252732"/>
<path d="M230.736 19.4652L228.171 19.7022C227.648 19.7506 227.28 18.6235 227.067 16.3209C226.851 13.9835 227.005 12.7906 227.528 12.7422L230.092 12.5052L229.986 11.3539C229.644 7.65589 230.176 5.03819 231.583 3.50084C233.02 1.92537 235.135 1.00866 237.926 0.750725C240.717 0.492786 243.223 0.771342 245.444 1.58639C245.733 1.66526 245.908 2.03612 245.97 2.69898C246.028 3.32695 245.826 4.38353 245.365 5.86872C244.904 7.35391 244.474 8.22051 244.075 8.46852C242.821 7.84552 241.566 7.59205 240.31 7.70812C238.95 7.83387 238.353 8.80381 238.521 10.6179L238.622 11.7169L242.966 11.3155C243.594 11.2574 244.011 12.3448 244.217 14.5776C244.443 17.0197 244.155 18.2778 243.352 18.352L240.003 18.6615L241.715 37.1866C241.754 37.6053 240.221 37.9581 237.116 38.245C234.046 38.5288 232.491 38.4613 232.453 38.0427L230.736 19.4652Z" fill="#252732"/>
<path d="M261.88 36.4908C261.892 36.7358 260.306 36.9373 257.122 37.0954C253.934 37.1836 252.335 37.1227 252.325 36.9127L251.459 19.4863L250.042 19.5567C249.482 19.5845 249.011 19.2746 248.628 18.6271C248.278 17.9429 248.078 17.0934 248.028 16.0786C247.84 12.2994 248.866 10.3542 251.106 10.243C252.68 10.1648 254.017 10.5895 255.115 11.5172C256.212 12.4099 256.791 13.4686 256.851 14.6933C257.515 13.2222 258.438 12.0362 259.621 11.1356C260.838 10.1982 262.093 9.69739 263.388 9.6331C265.418 9.53232 266.668 9.9964 267.14 11.0253C267.259 11.3001 267.333 11.7174 267.36 12.2773C267.387 12.8021 267.259 13.7731 266.979 15.1902C266.733 16.6056 266.451 17.6369 266.133 18.2841C265.814 18.9314 265.62 19.2567 265.55 19.2602C265.48 19.2637 265.141 19.1577 264.534 18.9423C263.96 18.6902 263.446 18.5754 262.991 18.598C261.662 18.664 261.049 19.7468 261.153 21.8464L261.88 36.4908Z" fill="#252732"/>
<path d="M273.92 33.0123C271.749 30.5939 270.664 27.2475 270.666 22.9731C270.668 18.6987 271.756 15.3533 273.929 12.9367C276.137 10.5202 279.098 9.31275 282.812 9.31435C286.526 9.31595 289.468 10.526 291.639 12.9444C293.811 15.3628 294.895 18.7092 294.893 22.9836C294.892 27.2579 293.804 30.6034 291.631 33.0199C289.458 35.4365 286.514 36.644 282.8 36.6424C279.086 36.6408 276.126 35.4307 273.92 33.0123ZM282.808 18.0908C280.846 18.09 279.864 19.7012 279.863 22.9245C279.862 26.1478 280.842 27.7599 282.804 27.7608C284.801 27.7616 285.8 26.1504 285.802 22.9271C285.803 19.7038 284.805 18.0917 282.808 18.0908Z" fill="#252732"/>
<path d="M323.007 37.5044C322.989 37.7491 321.477 37.763 318.472 37.5462C315.502 37.3319 314.028 37.0675 314.051 36.753L315.151 21.4995C315.277 19.7522 314.764 18.837 313.61 18.7538C313.016 18.7109 312.202 19.0386 311.168 19.7368L309.958 36.5105C309.933 36.8599 308.418 36.9262 305.413 36.7094C302.442 36.4951 300.971 36.1958 300.999 35.8114L302.235 18.6708L300.925 18.5763C299.772 18.4931 299.282 17.2459 299.456 14.8347C299.534 13.7514 299.823 12.6658 300.323 11.5778C300.993 10.0805 301.957 9.37728 303.215 9.46803C304.473 9.55879 305.655 9.97774 306.76 10.7249C307.901 11.4746 308.571 12.1552 308.773 12.767C311.079 11.0013 313.542 10.213 316.162 10.402C318.818 10.5936 320.891 11.5686 322.38 13.327C324.385 11.8207 326.716 11.1634 329.372 11.355C335.138 11.7709 337.767 15.4909 337.261 22.5148L336.111 38.4498C336.093 38.6944 334.582 38.7083 331.577 38.4915C328.606 38.2772 327.132 38.0128 327.155 37.6983L328.256 22.4448C328.382 20.6976 327.868 19.7823 326.715 19.6991C326.086 19.6538 325.254 19.9802 324.22 20.6784L323.007 37.5044Z" fill="#252732"/>
<path d="M366.995 42.637C366.882 43.3285 365.114 43.3933 361.691 42.8313C358.268 42.2694 356.614 41.6427 356.727 40.9512L361.001 14.9177L354.778 13.896C354.19 13.7995 353.906 12.9362 353.925 11.3061C353.946 10.5285 354.022 9.74208 354.153 8.9469C354.283 8.15172 354.463 7.38234 354.691 6.63876C355.195 5.08813 355.74 4.36107 356.328 4.45756L378.887 8.16126C379.474 8.25776 379.759 9.12105 379.74 10.7511C379.718 11.5288 379.643 12.3152 379.512 13.1104C379.381 13.9055 379.202 14.6749 378.973 15.4185C378.47 16.9691 377.925 17.6962 377.337 17.5997L371.269 16.6035L366.995 42.637Z" fill="#252732"/>
<path d="M378.553 42.4862C376.954 39.6565 376.616 36.155 377.54 31.9815C378.463 27.8081 380.247 24.7758 382.89 22.8847C385.567 21.0011 388.719 20.4605 392.345 21.2628C395.971 22.0651 398.583 23.8811 400.182 26.7108C401.781 29.5405 402.118 33.042 401.195 37.2155C400.272 41.3889 398.488 44.4212 395.845 46.3123C393.202 48.2034 390.067 48.7478 386.441 47.9455C382.815 47.1432 380.186 45.3234 378.553 42.4862ZM390.449 29.8321C388.533 29.4082 387.227 30.7699 386.531 33.9171C385.835 37.0642 386.444 38.8498 388.36 39.2736C390.31 39.7051 391.633 38.3472 392.329 35.2C393.026 32.0528 392.399 30.2635 390.449 29.8321Z" fill="#252732"/>
<path d="M436.127 33.7717C436.217 33.4694 437.186 33.5927 439.033 34.1415C443.197 35.3788 445.206 36.1218 445.059 36.3705L432.848 59.3871C432.588 59.8946 430.644 59.6095 427.017 58.5318C423.389 57.4542 421.605 56.6317 421.664 56.0644L422.951 44.1662L417.029 54.6874C416.779 55.1613 414.773 54.8394 411.012 53.7218C407.284 52.6143 405.459 51.7432 405.538 51.1088L408.343 25.2429C408.303 25.0114 409.777 25.3397 412.766 26.2278C415.711 27.1395 417.169 27.6457 417.139 27.7464L414.397 45.4625L423.578 29.8787C423.705 29.6972 424.843 29.9257 426.993 30.5643C429.142 31.2029 430.22 31.6329 430.228 31.8544L429.419 49.7063L436.127 33.7717Z" fill="#252732"/>
<path d="M451.268 66.3217C451.181 66.5511 449.958 66.2191 447.599 65.3258C444.36 63.9867 442.79 63.1861 442.889 62.924L448.919 47L447.641 46.5161C446.79 46.1935 446.506 45.2618 446.789 43.7208C446.885 43.2701 447.014 42.8317 447.175 42.4058C447.56 41.39 448.141 40.4488 448.919 39.5819C450.054 38.3636 451.245 37.9902 452.49 38.4617C453.735 38.9332 454.737 39.6499 455.497 40.6119C456.257 41.5739 456.689 42.4119 456.793 43.1257C459.527 42.1381 462.319 42.184 465.17 43.2635C468.021 44.343 469.793 45.8946 470.488 47.9185C471.183 49.9424 470.866 52.7072 469.538 56.2131L463.955 70.9575C463.806 71.3507 462.323 71.0137 459.505 69.9467C456.72 68.892 455.402 68.1681 455.551 67.7749L460.929 53.5712C461.55 51.9329 461.287 50.8966 460.14 50.4624C459.812 50.3383 459.298 50.312 458.596 50.3836C457.907 50.4224 457.456 50.4763 457.242 50.5453L451.268 66.3217Z" fill="#252732"/>
<path d="M483.586 40.009C483.758 39.6255 485.218 40.0509 487.967 41.2852C490.747 42.5339 492.044 43.3659 491.858 43.7814L487.681 53.0822C489.17 53.4436 490.203 53.7535 490.778 54.0119C497.49 57.0259 499.116 62.3843 495.657 70.0869C493.734 74.3697 491.21 77.2112 488.085 78.6115C485.006 79.9941 481.565 79.8315 477.761 78.1235C473.99 76.4299 471.238 74.1764 469.506 71.363L483.586 40.009ZM486.077 60.888C485.534 60.644 484.927 60.583 484.258 60.7049L480.146 69.8618C480.508 70.2545 480.928 70.5585 481.407 70.7738C481.919 71.0034 482.516 71.0413 483.2 70.8874C484.382 70.65 485.497 69.3648 486.544 67.0316C488.023 63.7396 487.867 61.6917 486.077 60.888Z" fill="#252732"/>
<path d="M497.041 83.1245C496.23 79.9772 496.812 76.5077 498.785 72.7162C500.758 68.9246 503.267 66.458 506.31 65.3165C509.384 64.1911 512.568 64.4857 515.862 66.2003C519.156 67.9149 521.209 70.3459 522.02 73.4931C522.83 76.6404 522.249 80.1099 520.276 83.9014C518.302 87.693 515.794 90.1596 512.751 91.3011C509.708 92.4427 506.54 92.1561 503.245 90.4415C499.951 88.7269 497.883 86.2879 497.041 83.1245ZM511.81 73.9855C510.07 73.0797 508.455 74.0564 506.967 76.9156C505.479 79.7748 505.605 81.6573 507.346 82.5631C509.117 83.4851 510.747 82.5165 512.235 79.6573C513.723 76.7981 513.582 74.9075 511.81 73.9855Z" fill="#252732"/>
<path d="M544.854 83.3116C545.118 83.1431 545.942 83.473 547.324 84.3012C551.833 87.0017 553.928 88.4813 553.609 88.7399L541.277 96.8516C540.833 105.979 540.611 110.543 540.611 110.543C540.503 110.723 539.511 110.333 537.636 109.373C535.76 108.413 534.447 107.708 533.695 107.258C531.802 106.124 530.912 105.325 531.026 104.863L533.101 95.8752L525.607 102.046C525.421 102.22 524.501 101.812 522.848 100.822C521.195 99.8316 519.758 98.8893 518.538 97.9949C517.318 97.1005 516.821 96.5991 517.05 96.4908L528.356 89.173C529.256 79.6247 529.715 74.8355 529.733 74.8055C529.841 74.6251 530.391 74.7299 531.383 75.1197C532.404 75.5275 533.486 76.0735 534.628 76.7577C535.801 77.4598 536.877 78.1861 537.857 78.9364C538.855 79.6567 539.36 80.143 539.372 80.3954L537.386 89.1304L544.854 83.3116Z" fill="#252732"/>
<path d="M556.515 108.702C556.398 108.877 555.29 108.266 553.189 106.87C551.117 105.492 550.13 104.731 550.227 104.585L563.696 82.4269C563.851 82.1935 565.256 82.9593 567.911 84.7244C570.595 86.5089 571.869 87.5033 571.734 87.7075L556.515 108.702ZM547.548 106.527C547.683 106.323 549.093 107.113 551.778 108.897C554.491 110.701 555.79 111.691 555.673 111.866L551.484 118.168C551.29 118.46 549.836 117.704 547.122 115.9C544.438 114.115 543.154 113.136 543.271 112.961L547.548 106.527Z" fill="#252732"/>
<path d="M167.321 95.1436C165.288 95.6276 164.217 95.646 164.111 95.199L158.942 73.4744C158.761 72.7144 159.017 72.2521 159.71 72.0872L165.611 70.6833C168.919 69.8963 171.461 70.0116 173.238 71.0294C175.038 72.0418 176.246 73.8443 176.863 76.4369C177.373 78.5826 177.149 80.7143 176.188 82.832C175.708 83.8909 174.861 84.8481 173.648 85.7035C172.435 86.559 170.934 87.1995 169.146 87.6249L170.574 93.626C170.637 93.8942 170.258 94.1852 169.435 94.499C168.63 94.7852 167.925 95.0001 167.321 95.1436ZM166.529 76.6285L167.79 81.9255L168.226 81.8218C169.008 81.6357 169.609 81.233 170.028 80.6136C170.448 79.9943 170.551 79.2376 170.338 78.3436C170.125 77.4496 169.784 76.8578 169.314 76.5682C168.866 76.2734 168.172 76.2376 167.233 76.461L166.529 76.6285Z" fill="#252732"/>
<path d="M183.751 89.2111C182.046 87.9315 180.923 85.9167 180.381 83.1668C179.838 80.4169 180.113 78.1265 181.203 76.2956C182.317 74.4603 184.068 73.307 186.457 72.8357C188.846 72.3645 190.893 72.7687 192.597 74.0483C194.302 75.328 195.425 77.3427 195.967 80.0926C196.51 82.8425 196.235 85.1329 195.145 86.9638C194.054 88.7947 192.314 89.9458 189.925 90.417C187.535 90.8883 185.477 90.4863 183.751 89.2111ZM187.571 78.482C186.308 78.731 185.882 79.8923 186.291 81.966C186.7 84.0397 187.535 84.9521 188.798 84.7031C190.083 84.4497 190.52 83.2862 190.111 81.2125C189.702 79.1388 188.855 78.2286 187.571 78.482Z" fill="#252732"/>
<path d="M208.599 93.12C208.624 93.2788 207.66 93.5112 205.708 93.8172C203.779 94.1195 202.802 94.1913 202.777 94.0324L200.029 76.4987L198.872 76.6802C198.327 76.7655 197.874 76.3249 197.513 75.3582C197.395 75.0511 197.297 74.6479 197.219 74.1486C197.141 73.6492 197.207 73.0342 197.418 72.3035C197.716 71.2337 198.364 70.6205 199.362 70.464C200.021 70.3608 200.647 70.4254 201.242 70.6578C201.855 70.8639 202.286 71.0872 202.533 71.3275C202.799 71.5416 202.935 71.6714 202.942 71.7168C204.278 70.2982 205.831 69.4501 207.602 69.1727C209.372 68.8952 211.001 69.3491 212.489 70.5345C213.974 71.6971 214.942 73.7197 215.394 76.6022C215.842 79.4621 215.555 81.786 214.533 83.5741C213.507 85.3394 212.018 86.375 210.066 86.6809C209.181 86.8197 208.368 86.9006 207.628 86.9236L208.599 93.12ZM207.242 75.3335C206.856 75.394 206.501 75.5775 206.177 75.8841L207.121 81.9102C207.514 81.8951 207.824 81.8698 208.051 81.8342C208.301 81.7951 208.494 81.7649 208.63 81.7435C209.546 81.5069 209.825 80.2423 209.465 77.9499C209.163 76.0207 208.422 75.1485 207.242 75.3335Z" fill="#252732"/>
<path d="M217.267 68.2586C217.238 68.0076 218.205 67.7683 220.167 67.5409C222.13 67.3135 223.126 67.3252 223.155 67.5763L224.313 77.5722C224.446 78.7132 224.877 79.2415 225.607 79.1568C226.155 79.0934 226.743 78.7823 227.372 78.2237L226.099 67.2351C226.072 67.0069 227.029 66.7804 228.969 66.5556C230.909 66.3308 231.892 66.3325 231.918 66.5607L233.22 77.789L234.11 77.6858C234.886 77.5959 235.36 78.2927 235.531 79.7761C235.619 80.5292 235.548 81.3122 235.318 82.1252C234.978 83.1822 234.42 83.7557 233.644 83.8456C232.115 84.0228 230.912 83.5261 230.037 82.3556L230.006 82.3938C228.757 83.7875 227.334 84.5769 225.736 84.762C223.523 85.0185 221.827 84.6599 220.651 83.6861C219.471 82.6895 218.733 80.9132 218.437 78.3572L217.267 68.2586Z" fill="#252732"/>
<path d="M244.487 82.2735C244.505 82.4795 243.346 82.6825 241.011 82.8827C239.178 83.0168 238.255 83.0037 238.241 82.8435L236.236 59.461C236.207 59.1176 237.302 58.8508 239.523 58.6604C241.474 58.5623 242.457 58.5933 242.471 58.7536L244.487 82.2735Z" fill="#252732"/>
<path d="M249.173 69.6461C248.465 68.536 248.091 67.6253 248.05 66.9143C248.008 66.1803 248.176 65.699 248.555 65.4703C249.829 64.8222 251.602 64.4334 253.873 64.3038C256.166 64.1729 257.814 64.6196 258.816 65.644C259.817 66.6454 260.377 68.1898 260.496 70.277L260.806 75.7131L261.976 75.6464C262.366 75.6241 262.677 75.8365 262.91 76.2834C263.165 76.7291 263.316 77.3533 263.362 78.1561C263.408 78.9589 263.246 79.762 262.878 80.5654C262.533 81.3675 262.016 81.7882 261.328 81.8275C260.089 81.8982 259.072 81.6225 258.277 81.0006C257.918 80.745 257.635 80.4274 257.429 80.048C256.45 81.4385 254.848 82.1973 252.623 82.3243C250.949 82.4199 249.504 81.904 248.289 80.7767C247.074 79.6495 246.42 78.2716 246.327 76.643C246.114 72.9043 248.244 70.9073 252.716 70.652L254.609 70.544L254.589 70.2C254.555 69.6036 254.43 69.231 254.214 69.0823C254.02 68.9092 253.568 68.843 252.857 68.8836C251.985 68.9333 250.757 69.1875 249.173 69.6461ZM252.286 75.8197C252.315 76.3243 252.475 76.7064 252.766 76.9659C253.056 77.2025 253.407 77.309 253.82 77.2855C254.256 77.2606 254.636 77.0663 254.96 76.7026L254.809 74.0534L253.845 74.1084C252.744 74.1712 252.225 74.7416 252.286 75.8197Z" fill="#252732"/>
<path d="M273.609 80.9214C273.615 81.1971 272.654 81.359 270.725 81.4074C268.426 81.3732 267.274 81.2527 267.269 81.046L266.963 68.8504L265.206 68.8945C264.747 68.906 264.497 68.1194 264.457 66.5347C264.447 66.1213 264.469 65.6151 264.523 65.0163C264.599 64.4168 264.764 64.1139 265.017 64.1076L266.843 64.0618L266.767 61.0301C266.755 60.5708 267.714 60.3169 269.643 60.2685C271.595 60.2196 272.576 60.3788 272.585 60.7463L272.641 62.9511L272.699 63.9149L275.628 63.8414C276.018 63.8316 276.234 64.6306 276.274 66.2383C276.314 67.846 276.139 68.6547 275.749 68.6645L273.303 68.7259L273.609 80.9214Z" fill="#252732"/>
<path d="M284.885 80.8419C284.885 81.0257 283.829 81.1196 281.715 81.1237C279.624 81.1277 278.579 81.0493 278.578 80.8885L278.546 63.9679C278.546 63.8071 279.591 63.7247 281.681 63.7207C283.795 63.7166 284.852 63.7835 284.852 63.9213L284.885 80.8419ZM284.848 61.8881C284.849 62.0489 283.792 62.1314 281.678 62.1354C279.588 62.1395 278.542 62.0726 278.542 61.9347L278.532 56.9723C278.532 56.7425 279.577 56.6256 281.668 56.6216C283.781 56.6175 284.838 56.6844 284.839 56.8223L284.848 61.8881Z" fill="#252732"/>
<path d="M289.772 79.0376C288.39 77.4152 287.736 75.2031 287.81 72.4012C287.885 69.5993 288.655 67.4249 290.121 65.8779C291.609 64.3315 293.571 63.5905 296.005 63.655C298.44 63.7194 300.348 64.5628 301.73 66.1851C303.112 67.8075 303.766 70.0196 303.692 72.8215C303.618 75.6234 302.848 77.7978 301.382 79.3448C299.916 80.8918 297.966 81.6331 295.531 81.5687C293.097 81.5043 291.177 80.6606 289.772 79.0376ZM295.853 69.408C294.567 69.374 293.896 70.4134 293.84 72.5263C293.784 74.6392 294.399 75.7127 295.685 75.7467C296.994 75.7814 297.677 74.7422 297.733 72.6293C297.789 70.5164 297.162 69.4427 295.853 69.408Z" fill="#252732"/>
<path d="M313.32 81.8148C313.31 81.9753 312.479 82.0019 310.829 81.8947C308.541 81.677 307.402 81.4765 307.414 81.2931L308.138 70.151L307.244 70.0929C306.648 70.0542 306.291 69.5245 306.173 68.5039C306.146 68.2029 306.143 67.9033 306.162 67.6053C306.208 66.8946 306.392 66.1928 306.713 65.5C307.192 64.518 307.866 64.0554 308.737 64.1119C309.609 64.1685 310.375 64.4255 311.036 64.8828C311.697 65.3402 312.128 65.7826 312.331 66.2102C313.856 65.066 315.615 64.5587 317.61 64.6882C319.604 64.8177 321.014 65.4503 321.838 66.5859C322.662 67.7215 322.994 69.5159 322.835 71.9689L322.165 82.2857C322.147 82.5608 321.152 82.6343 319.181 82.5063C317.232 82.3797 316.267 82.1788 316.284 81.9037L316.93 71.9653C317.004 70.819 316.64 70.2198 315.838 70.1677C315.609 70.1528 315.281 70.2351 314.855 70.4146C314.43 70.5712 314.158 70.6917 314.037 70.7759L313.32 81.8148Z" fill="#252732"/>
<path d="M332.151 83.6782C332.136 83.8383 331.042 83.8149 328.869 83.6081C326.719 83.4034 325.651 83.2324 325.664 83.0952L326.252 76.92C326.272 76.7142 327.356 76.7136 329.506 76.9183C331.679 77.1252 332.76 77.2858 332.749 77.4002L332.151 83.6782ZM333.2 72.6659C333.184 72.826 332.09 72.8026 329.918 72.5957C327.768 72.391 326.699 72.2201 326.712 72.0828L327.3 65.9077C327.32 65.7019 328.405 65.7013 330.555 65.906C332.727 66.1129 333.808 66.2735 333.797 66.3878L333.2 72.6659Z" fill="#252732"/>
<path d="M356.718 63.5015C357.126 62.7469 358.638 62.5537 361.255 62.9218C361.914 63.0147 362.681 63.169 363.556 63.3849C364.453 63.6039 364.858 63.7769 364.77 63.9038L355.665 77.1693L354.493 85.4959C354.439 85.8827 353.775 86.0676 352.501 86.0508C351.851 86.0522 351.219 86.0096 350.605 85.9232C349.991 85.8367 349.381 85.7162 348.777 85.5615C347.548 85.2262 346.962 84.8537 347.02 84.4442L348.163 76.3224L342.852 60.8891C342.781 60.7398 343.265 60.6803 344.304 60.7106C345.347 60.7181 346.221 60.7715 346.927 60.8708C349.725 61.2646 351.203 61.8902 351.361 62.7476L352.872 70.0597L356.718 63.5015Z" fill="#252732"/>
<path d="M363.103 85.7081C361.985 83.8939 361.676 81.6079 362.177 78.8501C362.678 76.0923 363.771 74.0609 365.456 72.7557C367.163 71.4546 369.215 71.0216 371.611 71.4567C374.007 71.8919 375.764 73.0165 376.882 74.8308C378 76.645 378.309 78.931 377.808 81.6888C377.307 84.4465 376.215 86.478 374.53 87.7832C372.845 89.0884 370.805 89.5235 368.409 89.0883C366.013 88.6532 364.244 87.5265 363.103 85.7081ZM370.582 77.1192C369.317 76.8893 368.495 77.8142 368.117 79.8938C367.739 81.9734 368.184 83.1282 369.449 83.3581C370.738 83.5921 371.571 82.6692 371.949 80.5896C372.326 78.51 371.871 77.3532 370.582 77.1192Z" fill="#252732"/>
<path d="M382.429 74.043C382.483 73.7963 383.475 73.8871 385.404 74.3155C387.333 74.7438 388.27 75.0813 388.215 75.328L386.034 85.1515C385.784 86.2729 386.019 86.9133 386.737 87.0727C387.275 87.1922 387.933 87.0912 388.71 86.7696L391.108 75.9705C391.158 75.7462 392.136 75.8458 394.043 76.2691C395.949 76.6925 396.877 77.0163 396.827 77.2406L394.377 88.2752L395.252 88.4694C396.014 88.6387 396.234 89.4523 395.91 90.9101C395.745 91.6503 395.422 92.3667 394.938 93.0596C394.271 93.9468 393.555 94.3057 392.793 94.1364C391.29 93.8027 390.317 92.9394 389.873 91.5464L389.832 91.5726C388.195 92.4799 386.592 92.7592 385.022 92.4106C382.846 91.9275 381.362 91.0331 380.569 89.7274C379.782 88.3994 379.667 86.4793 380.225 83.9674L382.429 74.043Z" fill="#252732"/>
<path d="M404.614 89.2966C404.58 89.4302 403.762 89.2931 402.159 88.8854C400.578 88.4833 399.802 88.2267 399.83 88.1153L403.35 71.48C403.395 71.3019 404.431 71.4705 406.457 71.9858C408.505 72.5068 409.51 72.8452 409.47 73.001L404.614 89.2966ZM398.594 89.899C398.634 89.7431 399.678 89.9257 401.726 90.4466C403.797 90.9732 404.815 91.3033 404.781 91.4369L403.558 96.2463C403.502 96.469 402.438 96.317 400.367 95.7904C398.319 95.2694 397.311 94.9421 397.345 94.8085L398.594 89.899Z" fill="#252732"/>
</svg>
